<?xml version="1.0" encoding="utf-8" standalone="no"?>
<!DOCTYPE svg PUBLIC "-//W3C//DTD SVG 1.1//EN"
  "http://www.w3.org/Graphics/SVG/1.1/DTD/svg11.dtd">
<svg xmlns:xlink="http://www.w3.org/1999/xlink" width="513.45125pt" height="218.0265pt" viewBox="0 0 513.45125 218.0265" xmlns="http://www.w3.org/2000/svg" version="1.1">
 <metadata>
  <rdf:RDF xmlns:dc="http://purl.org/dc/elements/1.1/" xmlns:cc="http://creativecommons.org/ns#" xmlns:rdf="http://www.w3.org/1999/02/22-rdf-syntax-ns#">
   <cc:Work>
    <dc:type rdf:resource="http://purl.org/dc/dcmitype/StillImage"/>
    <dc:date>2026-08-19T19:22:31.356446</dc:date>
    <dc:format>image/svg+xml</dc:format>
    <dc:creator>
     <cc:Agent>
      <dc:title>Matplotlib v3.10.8, https://matplotlib.org/</dc:title>
     </cc:Agent>
    </dc:creator>
   </cc:Work>
  </rdf:RDF>
 </metadata>
 <defs>
  <style type="text/css">*{stroke-linejoin: round; stroke-linecap: butt}</style>
 </defs>
 <g id="figure_1">
  <g id="patch_1">
   <path d="M 0 218.0265 
L 513.45125 218.0265 
L 513.45125 0 
L 0 0 
L 0 218.0265 
z
" style="fill: none"/>
  </g>
  <g id="axes_1">
   <g id="patch_2">
    <path d="M 29.97125 115.516262 
L 509.85125 115.516262 
L 509.85125 3.6 
L 29.97125 3.6 
L 29.97125 115.516262 
z
" style="fill: none"/>
   </g>
   <g id="FillBetweenPolyCollection_1">
    <path d="M 191.538888 71.549159 
L 191.538888 38.705941 
L 193.950345 44.653714 
L 196.361803 46.563657 
L 198.77326 39.020546 
L 198.77326 71.549159 
L 198.77326 71.549159 
L 196.361803 71.549159 
L 193.950345 71.549159 
L 191.538888 71.549159 
z
" clip-path="url(#p2fd8f60bb0)" style="fill: #8c3a2e; fill-opacity: 0.18"/>
    <path d="M 203.596175 71.549159 
L 203.596175 47.251577 
L 206.007632 43.62234 
L 208.419089 31.53172 
L 210.830546 23.740439 
L 213.242004 22.727625 
L 215.653461 21.819197 
L 218.064918 22.961207 
L 220.476376 16.003456 
L 222.887833 22.123998 
L 225.29929 27.22459 
L 227.710747 28.04241 
L 230.122205 32.022494 
L 232.533662 36.416739 
L 234.945119 46.475109 
L 234.945119 71.549159 
L 234.945119 71.549159 
L 232.533662 71.549159 
L 230.122205 71.549159 
L 227.710747 71.549159 
L 225.29929 71.549159 
L 222.887833 71.549159 
L 220.476376 71.549159 
L 218.064918 71.549159 
L 215.653461 71.549159 
L 213.242004 71.549159 
L 210.830546 71.549159 
L 208.419089 71.549159 
L 206.007632 71.549159 
L 203.596175 71.549159 
z
" clip-path="url(#p2fd8f60bb0)" style="fill: #8c3a2e; fill-opacity: 0.18"/>
    <path d="M 418.215873 71.549159 
L 418.215873 44.596688 
L 420.62733 34.357629 
L 423.038788 46.221167 
L 423.038788 71.549159 
L 423.038788 71.549159 
L 420.62733 71.549159 
L 418.215873 71.549159 
z
" clip-path="url(#p2fd8f60bb0)" style="fill: #8c3a2e; fill-opacity: 0.18"/>
    <path d="M 509.85125 71.549159 
L 509.85125 43.787544 
L 509.85125 71.549159 
L 509.85125 71.549159 
z
" clip-path="url(#p2fd8f60bb0)" style="fill: #8c3a2e; fill-opacity: 0.18"/>
   </g>
   <g id="matplotlib.axis_1">
    <g id="xtick_1">
     <g id="line2d_1"/>
    </g>
    <g id="xtick_2">
     <g id="line2d_2"/>
    </g>
    <g id="xtick_3">
     <g id="line2d_3"/>
    </g>
    <g id="xtick_4">
     <g id="line2d_4"/>
    </g>
   </g>
   <g id="matplotlib.axis_2">
    <g id="ytick_1">
     <g id="line2d_5">
      <path d="M 29.97125 111.519252 
L 509.85125 111.519252 
" clip-path="url(#p2fd8f60bb0)" style="fill: none; stroke: #d8e0e4; stroke-width: 0.5; stroke-linecap: square"/>
     </g>
     <g id="line2d_6"/>
     <g id="text_1">
      <text style="font-size: 8px; font-family: 'Helvetica'; text-anchor: end; fill: #5a6b77" x="26.47125" y="114.558627" transform="rotate(-0 26.47125 114.558627)">−2</text>
     </g>
    </g>
    <g id="ytick_2">
     <g id="line2d_7">
      <path d="M 29.97125 91.534206 
L 509.85125 91.534206 
" clip-path="url(#p2fd8f60bb0)" style="fill: none; stroke: #d8e0e4; stroke-width: 0.5; stroke-linecap: square"/>
     </g>
     <g id="line2d_8"/>
     <g id="text_2">
      <text style="font-size: 8px; font-family: 'Helvetica'; text-anchor: end; fill: #5a6b77" x="26.47125" y="94.573581" transform="rotate(-0 26.47125 94.573581)">−1</text>
     </g>
    </g>
    <g id="ytick_3">
     <g id="line2d_9">
      <path d="M 29.97125 71.549159 
L 509.85125 71.549159 
" clip-path="url(#p2fd8f60bb0)" style="fill: none; stroke: #d8e0e4; stroke-width: 0.5; stroke-linecap: square"/>
     </g>
     <g id="line2d_10"/>
     <g id="text_3">
      <text style="font-size: 8px; font-family: 'Helvetica'; text-anchor: end; fill: #5a6b77" x="26.47125" y="74.588534" transform="rotate(-0 26.47125 74.588534)">0</text>
     </g>
    </g>
    <g id="ytick_4">
     <g id="line2d_11">
      <path d="M 29.97125 51.564112 
L 509.85125 51.564112 
" clip-path="url(#p2fd8f60bb0)" style="fill: none; stroke: #d8e0e4; stroke-width: 0.5; stroke-linecap: square"/>
     </g>
     <g id="line2d_12"/>
     <g id="text_4">
      <text style="font-size: 8px; font-family: 'Helvetica'; text-anchor: end; fill: #5a6b77" x="26.47125" y="54.603487" transform="rotate(-0 26.47125 54.603487)">1</text>
     </g>
    </g>
    <g id="ytick_5">
     <g id="line2d_13">
      <path d="M 29.97125 31.579065 
L 509.85125 31.579065 
" clip-path="url(#p2fd8f60bb0)" style="fill: none; stroke: #d8e0e4; stroke-width: 0.5; stroke-linecap: square"/>
     </g>
     <g id="line2d_14"/>
     <g id="text_5">
      <text style="font-size: 8px; font-family: 'Helvetica'; text-anchor: end; fill: #5a6b77" x="26.47125" y="34.61844" transform="rotate(-0 26.47125 34.61844)">2</text>
     </g>
    </g>
    <g id="ytick_6">
     <g id="line2d_15">
      <path d="M 29.97125 11.594019 
L 509.85125 11.594019 
" clip-path="url(#p2fd8f60bb0)" style="fill: none; stroke: #d8e0e4; stroke-width: 0.5; stroke-linecap: square"/>
     </g>
     <g id="line2d_16"/>
     <g id="text_6">
      <text style="font-size: 8px; font-family: 'Helvetica'; text-anchor: end; fill: #5a6b77" x="26.47125" y="14.633394" transform="rotate(-0 26.47125 14.633394)">3</text>
     </g>
    </g>
   </g>
   <g id="line2d_17">
    <path d="M 29.97125 66.722251 
L 32.382707 64.844541 
L 34.794165 66.718987 
L 37.205622 72.319363 
L 39.617079 74.730904 
L 42.028536 80.325696 
L 44.439994 78.859893 
L 46.851451 69.463048 
L 49.262908 72.339096 
L 51.674366 75.791533 
L 54.085823 71.986783 
L 56.49728 69.322352 
L 58.908737 68.452183 
L 61.320195 74.16462 
L 63.731652 73.753767 
L 66.143109 68.820224 
L 68.554567 77.104602 
L 70.966024 79.15184 
L 73.377481 90.111815 
L 75.788938 96.349092 
L 78.200396 105.559264 
L 80.611853 103.931031 
L 83.02331 108.923874 
L 85.434768 103.842819 
L 87.846225 99.888238 
L 90.257682 98.410885 
L 92.669139 111.700255 
L 95.080597 111.489605 
L 97.492054 108.213779 
L 99.903511 104.182658 
L 102.314969 110.807 
L 104.726426 110.284659 
L 107.137883 112.952613 
L 109.54934 114.340276 
L 111.960798 103.861172 
L 114.372255 105.967961 
L 116.783712 103.033399 
L 119.19517 94.568625 
L 121.606627 96.010855 
L 124.018084 94.370699 
L 126.429541 91.464911 
L 128.840999 89.085096 
L 131.252456 94.999088 
L 133.663913 92.258836 
L 136.075371 81.673079 
L 138.486828 90.205129 
L 140.898285 82.923846 
L 143.309742 80.877912 
L 145.7212 83.779251 
L 148.132657 69.837916 
L 150.544114 64.79666 
L 152.955572 72.49172 
L 155.367029 71.562269 
L 157.778486 67.549815 
L 160.189943 68.671175 
L 162.601401 64.222159 
L 165.012858 64.841005 
L 167.424315 60.79688 
L 169.835773 52.22698 
L 172.24723 57.63537 
L 174.658687 57.085728 
L 177.070144 57.811493 
L 179.481602 54.529314 
L 181.893059 59.537546 
L 184.304516 60.086359 
L 186.715974 57.945832 
L 189.127431 48.855409 
L 191.538888 38.705941 
L 193.950345 44.653714 
L 196.361803 46.563657 
L 198.77326 39.020546 
L 201.184717 48.438629 
L 203.596175 47.251577 
L 206.007632 43.62234 
L 208.419089 31.53172 
L 210.830546 23.740439 
L 215.653461 21.819197 
L 218.064918 22.961207 
L 220.476376 16.003456 
L 222.887833 22.123998 
L 225.29929 27.22459 
L 227.710747 28.04241 
L 230.122205 32.022494 
L 232.533662 36.416739 
L 234.945119 46.475109 
L 237.356577 49.048173 
L 239.768034 54.383415 
L 242.179491 49.422469 
L 244.590948 48.335571 
L 247.002406 51.84514 
L 249.413863 50.971269 
L 251.82532 56.758065 
L 254.236778 53.581396 
L 256.648235 57.55943 
L 259.059692 54.625124 
L 261.471149 63.709858 
L 263.882607 61.771757 
L 266.294064 72.782808 
L 268.705521 85.095483 
L 271.116979 85.540607 
L 273.528436 89.693951 
L 275.939893 86.82537 
L 278.351351 71.104085 
L 280.762808 75.983523 
L 283.174265 79.166215 
L 285.585722 76.879862 
L 287.99718 72.968107 
L 290.408637 73.57819 
L 292.820094 74.325098 
L 295.231552 69.300832 
L 297.643009 65.826304 
L 300.054466 72.397718 
L 302.465923 72.442143 
L 304.877381 71.763309 
L 307.288838 77.990596 
L 309.700295 75.456038 
L 312.111753 80.152258 
L 314.52321 72.966717 
L 316.934667 71.25591 
L 319.346124 70.332332 
L 321.757582 73.760168 
L 324.169039 73.943499 
L 326.580496 85.927023 
L 328.991954 91.504856 
L 331.403411 87.241552 
L 333.814868 98.983752 
L 336.226325 91.080495 
L 338.637783 100.110839 
L 341.04924 92.682463 
L 343.460697 95.922232 
L 345.872155 88.689034 
L 348.283612 86.108969 
L 350.695069 94.221326 
L 355.517984 73.708514 
L 357.929441 73.563973 
L 360.340898 74.739471 
L 362.752356 75.103858 
L 365.163813 80.565108 
L 367.57527 72.551058 
L 369.986727 75.498744 
L 372.398185 75.119097 
L 374.809642 79.43573 
L 377.221099 82.355634 
L 379.632557 89.139135 
L 382.044014 79.442722 
L 384.455471 79.394511 
L 386.866928 72.308226 
L 389.278386 71.77819 
L 391.689843 75.740317 
L 394.1013 73.480695 
L 396.512758 72.582811 
L 398.924215 67.896904 
L 401.335672 65.707935 
L 403.747129 62.932937 
L 406.158587 66.874424 
L 408.570044 66.618488 
L 410.981501 50.622951 
L 413.392959 50.239637 
L 415.804416 52.006757 
L 418.215873 44.596688 
L 420.62733 34.357629 
L 423.038788 46.221167 
L 425.450245 49.568137 
L 427.861702 55.573723 
L 430.27316 68.460585 
L 432.684617 64.88699 
L 435.096074 66.630924 
L 437.507531 67.90223 
L 439.918989 74.51456 
L 442.330446 73.271898 
L 444.741903 78.642295 
L 447.153361 81.354248 
L 449.564818 90.182294 
L 451.976275 95.952218 
L 454.387732 85.217433 
L 456.79919 86.926801 
L 459.210647 83.477149 
L 461.622104 82.349829 
L 464.033562 83.873892 
L 466.445019 85.696127 
L 468.856476 80.217262 
L 471.267933 81.036239 
L 473.679391 80.843923 
L 476.090848 79.575093 
L 478.502305 71.150321 
L 480.913763 66.518058 
L 483.32522 64.129456 
L 485.736677 67.88089 
L 488.148134 76.47779 
L 490.559592 69.727903 
L 492.971049 63.411643 
L 495.382506 64.561798 
L 497.793964 61.32822 
L 505.028335 47.764138 
L 507.439793 52.146051 
L 509.85125 43.787544 
L 509.85125 43.787544 
" clip-path="url(#p2fd8f60bb0)" style="fill: none; stroke: #10202f; stroke-width: 1.1; stroke-linecap: square"/>
   </g>
   <g id="line2d_18">
    <path d="M 29.97125 47.567103 
L 509.85125 47.567103 
" clip-path="url(#p2fd8f60bb0)" style="fill: none; stroke: #a9853c; stroke-width: 0.7; stroke-linecap: square"/>
   </g>
   <g id="line2d_19">
    <path d="M 29.97125 61.556636 
L 509.85125 61.556636 
" clip-path="url(#p2fd8f60bb0)" style="fill: none; stroke: #a9853c; stroke-opacity: 0.6; stroke-width: 0.5; stroke-linecap: square"/>
   </g>
  </g>
  <g id="axes_2">
   <g id="patch_3">
    <path d="M 29.97125 203.184 
L 509.85125 203.184 
L 509.85125 128.573159 
L 29.97125 128.573159 
L 29.97125 203.184 
z
" style="fill: none"/>
   </g>
   <g id="FillBetweenPolyCollection_2">
    <defs>
     <path id="mce06bcd185" d="M 29.97125 -14.8425 
L 29.97125 -81.459322 
L 32.382707 -81.459322 
L 32.382707 -81.459322 
L 34.794165 -81.459322 
L 34.794165 -81.459322 
L 37.205622 -81.459322 
L 37.205622 -81.459322 
L 39.617079 -81.459322 
L 39.617079 -81.459322 
L 42.028536 -81.459322 
L 42.028536 -81.459322 
L 44.439994 -81.459322 
L 44.439994 -81.459322 
L 46.851451 -81.459322 
L 46.851451 -81.459322 
L 49.262908 -81.459322 
L 49.262908 -81.459322 
L 51.674366 -81.459322 
L 51.674366 -81.459322 
L 54.085823 -81.459322 
L 54.085823 -81.459322 
L 56.49728 -81.459322 
L 56.49728 -81.459322 
L 58.908737 -81.459322 
L 58.908737 -81.459322 
L 61.320195 -81.459322 
L 61.320195 -81.459322 
L 63.731652 -81.459322 
L 63.731652 -81.459322 
L 66.143109 -81.459322 
L 66.143109 -81.459322 
L 68.554567 -81.459322 
L 68.554567 -81.459322 
L 70.966024 -81.459322 
L 70.966024 -81.459322 
L 73.377481 -81.459322 
L 73.377481 -81.459322 
L 75.788938 -81.459322 
L 75.788938 -81.459322 
L 78.200396 -81.459322 
L 78.200396 -81.459322 
L 80.611853 -81.459322 
L 80.611853 -81.459322 
L 83.02331 -81.459322 
L 83.02331 -81.459322 
L 85.434768 -81.459322 
L 85.434768 -81.459322 
L 87.846225 -81.459322 
L 87.846225 -81.459322 
L 90.257682 -81.459322 
L 90.257682 -81.459322 
L 92.669139 -81.459322 
L 92.669139 -81.459322 
L 95.080597 -81.459322 
L 95.080597 -81.459322 
L 97.492054 -81.459322 
L 97.492054 -81.459322 
L 99.903511 -81.459322 
L 99.903511 -81.459322 
L 102.314969 -81.459322 
L 102.314969 -81.459322 
L 104.726426 -81.459322 
L 104.726426 -81.459322 
L 107.137883 -81.459322 
L 107.137883 -81.459322 
L 109.54934 -81.459322 
L 109.54934 -81.459322 
L 111.960798 -81.459322 
L 111.960798 -81.459322 
L 114.372255 -81.459322 
L 114.372255 -81.459322 
L 116.783712 -81.459322 
L 116.783712 -81.459322 
L 119.19517 -81.459322 
L 119.19517 -81.459322 
L 121.606627 -81.459322 
L 121.606627 -81.459322 
L 124.018084 -81.459322 
L 124.018084 -81.459322 
L 126.429541 -81.459322 
L 126.429541 -81.459322 
L 128.840999 -81.459322 
L 128.840999 -81.459322 
L 131.252456 -81.459322 
L 131.252456 -81.459322 
L 133.663913 -81.459322 
L 133.663913 -81.459322 
L 136.075371 -81.459322 
L 136.075371 -81.459322 
L 138.486828 -81.459322 
L 138.486828 -81.459322 
L 140.898285 -81.459322 
L 140.898285 -81.459322 
L 143.309742 -81.459322 
L 143.309742 -81.459322 
L 145.7212 -81.459322 
L 145.7212 -81.459322 
L 148.132657 -81.459322 
L 148.132657 -81.459322 
L 150.544114 -81.459322 
L 150.544114 -81.459322 
L 152.955572 -81.459322 
L 152.955572 -81.459322 
L 155.367029 -81.459322 
L 155.367029 -81.459322 
L 157.778486 -81.459322 
L 157.778486 -81.459322 
L 160.189943 -81.459322 
L 160.189943 -81.459322 
L 162.601401 -81.459322 
L 162.601401 -81.459322 
L 165.012858 -81.459322 
L 165.012858 -81.459322 
L 167.424315 -81.459322 
L 167.424315 -48.150911 
L 169.835773 -48.150911 
L 169.835773 -48.150911 
L 172.24723 -48.150911 
L 172.24723 -48.150911 
L 174.658687 -48.150911 
L 174.658687 -48.150911 
L 177.070144 -48.150911 
L 177.070144 -48.150911 
L 179.481602 -48.150911 
L 179.481602 -48.150911 
L 181.893059 -48.150911 
L 181.893059 -48.150911 
L 184.304516 -48.150911 
L 184.304516 -48.150911 
L 186.715974 -48.150911 
L 186.715974 -48.150911 
L 189.127431 -48.150911 
L 189.127431 -48.150911 
L 191.538888 -48.150911 
L 191.538888 -24.835023 
L 193.950345 -24.835023 
L 193.950345 -24.835023 
L 196.361803 -24.835023 
L 196.361803 -24.835023 
L 198.77326 -24.835023 
L 198.77326 -24.835023 
L 201.184717 -24.835023 
L 201.184717 -24.835023 
L 203.596175 -24.835023 
L 203.596175 -24.835023 
L 206.007632 -24.835023 
L 206.007632 -24.835023 
L 208.419089 -24.835023 
L 208.419089 -24.835023 
L 210.830546 -24.835023 
L 210.830546 -24.835023 
L 213.242004 -24.835023 
L 213.242004 -24.835023 
L 215.653461 -24.835023 
L 215.653461 -24.835023 
L 218.064918 -24.835023 
L 218.064918 -24.835023 
L 220.476376 -24.835023 
L 220.476376 -24.835023 
L 222.887833 -24.835023 
L 222.887833 -24.835023 
L 225.29929 -24.835023 
L 225.29929 -24.835023 
L 227.710747 -24.835023 
L 227.710747 -24.835023 
L 230.122205 -24.835023 
L 230.122205 -24.835023 
L 232.533662 -24.835023 
L 232.533662 -24.835023 
L 234.945119 -24.835023 
L 234.945119 -24.835023 
L 237.356577 -24.835023 
L 237.356577 -24.835023 
L 239.768034 -24.835023 
L 239.768034 -24.835023 
L 242.179491 -24.835023 
L 242.179491 -24.835023 
L 244.590948 -24.835023 
L 244.590948 -24.835023 
L 247.002406 -24.835023 
L 247.002406 -24.835023 
L 249.413863 -24.835023 
L 249.413863 -24.835023 
L 251.82532 -24.835023 
L 251.82532 -24.835023 
L 254.236778 -24.835023 
L 254.236778 -24.835023 
L 256.648235 -24.835023 
L 256.648235 -24.835023 
L 259.059692 -24.835023 
L 259.059692 -24.835023 
L 261.471149 -24.835023 
L 261.471149 -48.150911 
L 263.882607 -48.150911 
L 263.882607 -48.150911 
L 266.294064 -48.150911 
L 266.294064 -81.459322 
L 268.705521 -81.459322 
L 268.705521 -81.459322 
L 271.116979 -81.459322 
L 271.116979 -81.459322 
L 273.528436 -81.459322 
L 273.528436 -81.459322 
L 275.939893 -81.459322 
L 275.939893 -81.459322 
L 278.351351 -81.459322 
L 278.351351 -81.459322 
L 280.762808 -81.459322 
L 280.762808 -81.459322 
L 283.174265 -81.459322 
L 283.174265 -81.459322 
L 285.585722 -81.459322 
L 285.585722 -81.459322 
L 287.99718 -81.459322 
L 287.99718 -81.459322 
L 290.408637 -81.459322 
L 290.408637 -81.459322 
L 292.820094 -81.459322 
L 292.820094 -81.459322 
L 295.231552 -81.459322 
L 295.231552 -81.459322 
L 297.643009 -81.459322 
L 297.643009 -81.459322 
L 300.054466 -81.459322 
L 300.054466 -81.459322 
L 302.465923 -81.459322 
L 302.465923 -81.459322 
L 304.877381 -81.459322 
L 304.877381 -81.459322 
L 307.288838 -81.459322 
L 307.288838 -81.459322 
L 309.700295 -81.459322 
L 309.700295 -81.459322 
L 312.111753 -81.459322 
L 312.111753 -81.459322 
L 314.52321 -81.459322 
L 314.52321 -81.459322 
L 316.934667 -81.459322 
L 316.934667 -81.459322 
L 319.346124 -81.459322 
L 319.346124 -81.459322 
L 321.757582 -81.459322 
L 321.757582 -81.459322 
L 324.169039 -81.459322 
L 324.169039 -81.459322 
L 326.580496 -81.459322 
L 326.580496 -81.459322 
L 328.991954 -81.459322 
L 328.991954 -81.459322 
L 331.403411 -81.459322 
L 331.403411 -81.459322 
L 333.814868 -81.459322 
L 333.814868 -81.459322 
L 336.226325 -81.459322 
L 336.226325 -81.459322 
L 338.637783 -81.459322 
L 338.637783 -81.459322 
L 341.04924 -81.459322 
L 341.04924 -81.459322 
L 343.460697 -81.459322 
L 343.460697 -81.459322 
L 345.872155 -81.459322 
L 345.872155 -81.459322 
L 348.283612 -81.459322 
L 348.283612 -81.459322 
L 350.695069 -81.459322 
L 350.695069 -81.459322 
L 353.106526 -81.459322 
L 353.106526 -81.459322 
L 355.517984 -81.459322 
L 355.517984 -81.459322 
L 357.929441 -81.459322 
L 357.929441 -81.459322 
L 360.340898 -81.459322 
L 360.340898 -81.459322 
L 362.752356 -81.459322 
L 362.752356 -81.459322 
L 365.163813 -81.459322 
L 365.163813 -81.459322 
L 367.57527 -81.459322 
L 367.57527 -81.459322 
L 369.986727 -81.459322 
L 369.986727 -81.459322 
L 372.398185 -81.459322 
L 372.398185 -81.459322 
L 374.809642 -81.459322 
L 374.809642 -81.459322 
L 377.221099 -81.459322 
L 377.221099 -81.459322 
L 379.632557 -81.459322 
L 379.632557 -81.459322 
L 382.044014 -81.459322 
L 382.044014 -81.459322 
L 384.455471 -81.459322 
L 384.455471 -81.459322 
L 386.866928 -81.459322 
L 386.866928 -81.459322 
L 389.278386 -81.459322 
L 389.278386 -81.459322 
L 391.689843 -81.459322 
L 391.689843 -81.459322 
L 394.1013 -81.459322 
L 394.1013 -81.459322 
L 396.512758 -81.459322 
L 396.512758 -81.459322 
L 398.924215 -81.459322 
L 398.924215 -81.459322 
L 401.335672 -81.459322 
L 401.335672 -81.459322 
L 403.747129 -81.459322 
L 403.747129 -81.459322 
L 406.158587 -81.459322 
L 406.158587 -81.459322 
L 408.570044 -81.459322 
L 408.570044 -81.459322 
L 410.981501 -81.459322 
L 410.981501 -48.150911 
L 413.392959 -48.150911 
L 413.392959 -48.150911 
L 415.804416 -48.150911 
L 415.804416 -48.150911 
L 418.215873 -48.150911 
L 418.215873 -24.835023 
L 420.62733 -24.835023 
L 420.62733 -24.835023 
L 423.038788 -24.835023 
L 423.038788 -24.835023 
L 425.450245 -24.835023 
L 425.450245 -24.835023 
L 427.861702 -24.835023 
L 427.861702 -24.835023 
L 430.27316 -24.835023 
L 430.27316 -48.150911 
L 432.684617 -48.150911 
L 432.684617 -48.150911 
L 435.096074 -48.150911 
L 435.096074 -48.150911 
L 437.507531 -48.150911 
L 437.507531 -48.150911 
L 439.918989 -48.150911 
L 439.918989 -81.459322 
L 442.330446 -81.459322 
L 442.330446 -81.459322 
L 444.741903 -81.459322 
L 444.741903 -81.459322 
L 447.153361 -81.459322 
L 447.153361 -81.459322 
L 449.564818 -81.459322 
L 449.564818 -81.459322 
L 451.976275 -81.459322 
L 451.976275 -81.459322 
L 454.387732 -81.459322 
L 454.387732 -81.459322 
L 456.79919 -81.459322 
L 456.79919 -81.459322 
L 459.210647 -81.459322 
L 459.210647 -81.459322 
L 461.622104 -81.459322 
L 461.622104 -81.459322 
L 464.033562 -81.459322 
L 464.033562 -81.459322 
L 466.445019 -81.459322 
L 466.445019 -81.459322 
L 468.856476 -81.459322 
L 468.856476 -81.459322 
L 471.267933 -81.459322 
L 471.267933 -81.459322 
L 473.679391 -81.459322 
L 473.679391 -81.459322 
L 476.090848 -81.459322 
L 476.090848 -81.459322 
L 478.502305 -81.459322 
L 478.502305 -81.459322 
L 480.913763 -81.459322 
L 480.913763 -81.459322 
L 483.32522 -81.459322 
L 483.32522 -81.459322 
L 485.736677 -81.459322 
L 485.736677 -81.459322 
L 488.148134 -81.459322 
L 488.148134 -81.459322 
L 490.559592 -81.459322 
L 490.559592 -81.459322 
L 492.971049 -81.459322 
L 492.971049 -81.459322 
L 495.382506 -81.459322 
L 495.382506 -81.459322 
L 497.793964 -81.459322 
L 497.793964 -48.150911 
L 500.205421 -48.150911 
L 500.205421 -48.150911 
L 502.616878 -48.150911 
L 502.616878 -48.150911 
L 505.028335 -48.150911 
L 505.028335 -48.150911 
L 507.439793 -48.150911 
L 507.439793 -48.150911 
L 509.85125 -48.150911 
L 509.85125 -24.835023 
L 509.85125 -14.8425 
L 509.85125 -14.8425 
L 509.85125 -14.8425 
L 507.439793 -14.8425 
L 507.439793 -14.8425 
L 505.028335 -14.8425 
L 505.028335 -14.8425 
L 502.616878 -14.8425 
L 502.616878 -14.8425 
L 500.205421 -14.8425 
L 500.205421 -14.8425 
L 497.793964 -14.8425 
L 497.793964 -14.8425 
L 495.382506 -14.8425 
L 495.382506 -14.8425 
L 492.971049 -14.8425 
L 492.971049 -14.8425 
L 490.559592 -14.8425 
L 490.559592 -14.8425 
L 488.148134 -14.8425 
L 488.148134 -14.8425 
L 485.736677 -14.8425 
L 485.736677 -14.8425 
L 483.32522 -14.8425 
L 483.32522 -14.8425 
L 480.913763 -14.8425 
L 480.913763 -14.8425 
L 478.502305 -14.8425 
L 478.502305 -14.8425 
L 476.090848 -14.8425 
L 476.090848 -14.8425 
L 473.679391 -14.8425 
L 473.679391 -14.8425 
L 471.267933 -14.8425 
L 471.267933 -14.8425 
L 468.856476 -14.8425 
L 468.856476 -14.8425 
L 466.445019 -14.8425 
L 466.445019 -14.8425 
L 464.033562 -14.8425 
L 464.033562 -14.8425 
L 461.622104 -14.8425 
L 461.622104 -14.8425 
L 459.210647 -14.8425 
L 459.210647 -14.8425 
L 456.79919 -14.8425 
L 456.79919 -14.8425 
L 454.387732 -14.8425 
L 454.387732 -14.8425 
L 451.976275 -14.8425 
L 451.976275 -14.8425 
L 449.564818 -14.8425 
L 449.564818 -14.8425 
L 447.153361 -14.8425 
L 447.153361 -14.8425 
L 444.741903 -14.8425 
L 444.741903 -14.8425 
L 442.330446 -14.8425 
L 442.330446 -14.8425 
L 439.918989 -14.8425 
L 439.918989 -14.8425 
L 437.507531 -14.8425 
L 437.507531 -14.8425 
L 435.096074 -14.8425 
L 435.096074 -14.8425 
L 432.684617 -14.8425 
L 432.684617 -14.8425 
L 430.27316 -14.8425 
L 430.27316 -14.8425 
L 427.861702 -14.8425 
L 427.861702 -14.8425 
L 425.450245 -14.8425 
L 425.450245 -14.8425 
L 423.038788 -14.8425 
L 423.038788 -14.8425 
L 420.62733 -14.8425 
L 420.62733 -14.8425 
L 418.215873 -14.8425 
L 418.215873 -14.8425 
L 415.804416 -14.8425 
L 415.804416 -14.8425 
L 413.392959 -14.8425 
L 413.392959 -14.8425 
L 410.981501 -14.8425 
L 410.981501 -14.8425 
L 408.570044 -14.8425 
L 408.570044 -14.8425 
L 406.158587 -14.8425 
L 406.158587 -14.8425 
L 403.747129 -14.8425 
L 403.747129 -14.8425 
L 401.335672 -14.8425 
L 401.335672 -14.8425 
L 398.924215 -14.8425 
L 398.924215 -14.8425 
L 396.512758 -14.8425 
L 396.512758 -14.8425 
L 394.1013 -14.8425 
L 394.1013 -14.8425 
L 391.689843 -14.8425 
L 391.689843 -14.8425 
L 389.278386 -14.8425 
L 389.278386 -14.8425 
L 386.866928 -14.8425 
L 386.866928 -14.8425 
L 384.455471 -14.8425 
L 384.455471 -14.8425 
L 382.044014 -14.8425 
L 382.044014 -14.8425 
L 379.632557 -14.8425 
L 379.632557 -14.8425 
L 377.221099 -14.8425 
L 377.221099 -14.8425 
L 374.809642 -14.8425 
L 374.809642 -14.8425 
L 372.398185 -14.8425 
L 372.398185 -14.8425 
L 369.986727 -14.8425 
L 369.986727 -14.8425 
L 367.57527 -14.8425 
L 367.57527 -14.8425 
L 365.163813 -14.8425 
L 365.163813 -14.8425 
L 362.752356 -14.8425 
L 362.752356 -14.8425 
L 360.340898 -14.8425 
L 360.340898 -14.8425 
L 357.929441 -14.8425 
L 357.929441 -14.8425 
L 355.517984 -14.8425 
L 355.517984 -14.8425 
L 353.106526 -14.8425 
L 353.106526 -14.8425 
L 350.695069 -14.8425 
L 350.695069 -14.8425 
L 348.283612 -14.8425 
L 348.283612 -14.8425 
L 345.872155 -14.8425 
L 345.872155 -14.8425 
L 343.460697 -14.8425 
L 343.460697 -14.8425 
L 341.04924 -14.8425 
L 341.04924 -14.8425 
L 338.637783 -14.8425 
L 338.637783 -14.8425 
L 336.226325 -14.8425 
L 336.226325 -14.8425 
L 333.814868 -14.8425 
L 333.814868 -14.8425 
L 331.403411 -14.8425 
L 331.403411 -14.8425 
L 328.991954 -14.8425 
L 328.991954 -14.8425 
L 326.580496 -14.8425 
L 326.580496 -14.8425 
L 324.169039 -14.8425 
L 324.169039 -14.8425 
L 321.757582 -14.8425 
L 321.757582 -14.8425 
L 319.346124 -14.8425 
L 319.346124 -14.8425 
L 316.934667 -14.8425 
L 316.934667 -14.8425 
L 314.52321 -14.8425 
L 314.52321 -14.8425 
L 312.111753 -14.8425 
L 312.111753 -14.8425 
L 309.700295 -14.8425 
L 309.700295 -14.8425 
L 307.288838 -14.8425 
L 307.288838 -14.8425 
L 304.877381 -14.8425 
L 304.877381 -14.8425 
L 302.465923 -14.8425 
L 302.465923 -14.8425 
L 300.054466 -14.8425 
L 300.054466 -14.8425 
L 297.643009 -14.8425 
L 297.643009 -14.8425 
L 295.231552 -14.8425 
L 295.231552 -14.8425 
L 292.820094 -14.8425 
L 292.820094 -14.8425 
L 290.408637 -14.8425 
L 290.408637 -14.8425 
L 287.99718 -14.8425 
L 287.99718 -14.8425 
L 285.585722 -14.8425 
L 285.585722 -14.8425 
L 283.174265 -14.8425 
L 283.174265 -14.8425 
L 280.762808 -14.8425 
L 280.762808 -14.8425 
L 278.351351 -14.8425 
L 278.351351 -14.8425 
L 275.939893 -14.8425 
L 275.939893 -14.8425 
L 273.528436 -14.8425 
L 273.528436 -14.8425 
L 271.116979 -14.8425 
L 271.116979 -14.8425 
L 268.705521 -14.8425 
L 268.705521 -14.8425 
L 266.294064 -14.8425 
L 266.294064 -14.8425 
L 263.882607 -14.8425 
L 263.882607 -14.8425 
L 261.471149 -14.8425 
L 261.471149 -14.8425 
L 259.059692 -14.8425 
L 259.059692 -14.8425 
L 256.648235 -14.8425 
L 256.648235 -14.8425 
L 254.236778 -14.8425 
L 254.236778 -14.8425 
L 251.82532 -14.8425 
L 251.82532 -14.8425 
L 249.413863 -14.8425 
L 249.413863 -14.8425 
L 247.002406 -14.8425 
L 247.002406 -14.8425 
L 244.590948 -14.8425 
L 244.590948 -14.8425 
L 242.179491 -14.8425 
L 242.179491 -14.8425 
L 239.768034 -14.8425 
L 239.768034 -14.8425 
L 237.356577 -14.8425 
L 237.356577 -14.8425 
L 234.945119 -14.8425 
L 234.945119 -14.8425 
L 232.533662 -14.8425 
L 232.533662 -14.8425 
L 230.122205 -14.8425 
L 230.122205 -14.8425 
L 227.710747 -14.8425 
L 227.710747 -14.8425 
L 225.29929 -14.8425 
L 225.29929 -14.8425 
L 222.887833 -14.8425 
L 222.887833 -14.8425 
L 220.476376 -14.8425 
L 220.476376 -14.8425 
L 218.064918 -14.8425 
L 218.064918 -14.8425 
L 215.653461 -14.8425 
L 215.653461 -14.8425 
L 213.242004 -14.8425 
L 213.242004 -14.8425 
L 210.830546 -14.8425 
L 210.830546 -14.8425 
L 208.419089 -14.8425 
L 208.419089 -14.8425 
L 206.007632 -14.8425 
L 206.007632 -14.8425 
L 203.596175 -14.8425 
L 203.596175 -14.8425 
L 201.184717 -14.8425 
L 201.184717 -14.8425 
L 198.77326 -14.8425 
L 198.77326 -14.8425 
L 196.361803 -14.8425 
L 196.361803 -14.8425 
L 193.950345 -14.8425 
L 193.950345 -14.8425 
L 191.538888 -14.8425 
L 191.538888 -14.8425 
L 189.127431 -14.8425 
L 189.127431 -14.8425 
L 186.715974 -14.8425 
L 186.715974 -14.8425 
L 184.304516 -14.8425 
L 184.304516 -14.8425 
L 181.893059 -14.8425 
L 181.893059 -14.8425 
L 179.481602 -14.8425 
L 179.481602 -14.8425 
L 177.070144 -14.8425 
L 177.070144 -14.8425 
L 174.658687 -14.8425 
L 174.658687 -14.8425 
L 172.24723 -14.8425 
L 172.24723 -14.8425 
L 169.835773 -14.8425 
L 169.835773 -14.8425 
L 167.424315 -14.8425 
L 167.424315 -14.8425 
L 165.012858 -14.8425 
L 165.012858 -14.8425 
L 162.601401 -14.8425 
L 162.601401 -14.8425 
L 160.189943 -14.8425 
L 160.189943 -14.8425 
L 157.778486 -14.8425 
L 157.778486 -14.8425 
L 155.367029 -14.8425 
L 155.367029 -14.8425 
L 152.955572 -14.8425 
L 152.955572 -14.8425 
L 150.544114 -14.8425 
L 150.544114 -14.8425 
L 148.132657 -14.8425 
L 148.132657 -14.8425 
L 145.7212 -14.8425 
L 145.7212 -14.8425 
L 143.309742 -14.8425 
L 143.309742 -14.8425 
L 140.898285 -14.8425 
L 140.898285 -14.8425 
L 138.486828 -14.8425 
L 138.486828 -14.8425 
L 136.075371 -14.8425 
L 136.075371 -14.8425 
L 133.663913 -14.8425 
L 133.663913 -14.8425 
L 131.252456 -14.8425 
L 131.252456 -14.8425 
L 128.840999 -14.8425 
L 128.840999 -14.8425 
L 126.429541 -14.8425 
L 126.429541 -14.8425 
L 124.018084 -14.8425 
L 124.018084 -14.8425 
L 121.606627 -14.8425 
L 121.606627 -14.8425 
L 119.19517 -14.8425 
L 119.19517 -14.8425 
L 116.783712 -14.8425 
L 116.783712 -14.8425 
L 114.372255 -14.8425 
L 114.372255 -14.8425 
L 111.960798 -14.8425 
L 111.960798 -14.8425 
L 109.54934 -14.8425 
L 109.54934 -14.8425 
L 107.137883 -14.8425 
L 107.137883 -14.8425 
L 104.726426 -14.8425 
L 104.726426 -14.8425 
L 102.314969 -14.8425 
L 102.314969 -14.8425 
L 99.903511 -14.8425 
L 99.903511 -14.8425 
L 97.492054 -14.8425 
L 97.492054 -14.8425 
L 95.080597 -14.8425 
L 95.080597 -14.8425 
L 92.669139 -14.8425 
L 92.669139 -14.8425 
L 90.257682 -14.8425 
L 90.257682 -14.8425 
L 87.846225 -14.8425 
L 87.846225 -14.8425 
L 85.434768 -14.8425 
L 85.434768 -14.8425 
L 83.02331 -14.8425 
L 83.02331 -14.8425 
L 80.611853 -14.8425 
L 80.611853 -14.8425 
L 78.200396 -14.8425 
L 78.200396 -14.8425 
L 75.788938 -14.8425 
L 75.788938 -14.8425 
L 73.377481 -14.8425 
L 73.377481 -14.8425 
L 70.966024 -14.8425 
L 70.966024 -14.8425 
L 68.554567 -14.8425 
L 68.554567 -14.8425 
L 66.143109 -14.8425 
L 66.143109 -14.8425 
L 63.731652 -14.8425 
L 63.731652 -14.8425 
L 61.320195 -14.8425 
L 61.320195 -14.8425 
L 58.908737 -14.8425 
L 58.908737 -14.8425 
L 56.49728 -14.8425 
L 56.49728 -14.8425 
L 54.085823 -14.8425 
L 54.085823 -14.8425 
L 51.674366 -14.8425 
L 51.674366 -14.8425 
L 49.262908 -14.8425 
L 49.262908 -14.8425 
L 46.851451 -14.8425 
L 46.851451 -14.8425 
L 44.439994 -14.8425 
L 44.439994 -14.8425 
L 42.028536 -14.8425 
L 42.028536 -14.8425 
L 39.617079 -14.8425 
L 39.617079 -14.8425 
L 37.205622 -14.8425 
L 37.205622 -14.8425 
L 34.794165 -14.8425 
L 34.794165 -14.8425 
L 32.382707 -14.8425 
L 32.382707 -14.8425 
L 29.97125 -14.8425 
z
"/>
    </defs>
    <g clip-path="url(#p1ed30c2bc9)">
     <use xlink:href="#mce06bcd185" x="0" y="218.0265" style="fill: #2663a7; fill-opacity: 0.14"/>
    </g>
   </g>
   <g id="matplotlib.axis_3">
    <g id="xtick_5">
     <g id="line2d_20"/>
     <g id="text_7">
      <text style="font-size: 8px; font-family: 'Helvetica'; text-anchor: middle; fill: #5a6b77" x="29.97125" y="212.76275" transform="rotate(-0 29.97125 212.76275)">Y0</text>
     </g>
    </g>
    <g id="xtick_6">
     <g id="line2d_21"/>
     <g id="text_8">
      <text style="font-size: 8px; font-family: 'Helvetica'; text-anchor: middle; fill: #5a6b77" x="155.367029" y="212.76275" transform="rotate(-0 155.367029 212.76275)">Y1</text>
     </g>
    </g>
    <g id="xtick_7">
     <g id="line2d_22"/>
     <g id="text_9">
      <text style="font-size: 8px; font-family: 'Helvetica'; text-anchor: middle; fill: #5a6b77" x="280.762808" y="212.76275" transform="rotate(-0 280.762808 212.76275)">Y2</text>
     </g>
    </g>
    <g id="xtick_8">
     <g id="line2d_23"/>
     <g id="text_10">
      <text style="font-size: 8px; font-family: 'Helvetica'; text-anchor: middle; fill: #5a6b77" x="406.158587" y="212.76275" transform="rotate(-0 406.158587 212.76275)">Y3</text>
     </g>
    </g>
   </g>
   <g id="matplotlib.axis_4">
    <g id="ytick_7">
     <g id="line2d_24">
      <path d="M 29.97125 203.184 
L 509.85125 203.184 
" clip-path="url(#p1ed30c2bc9)" style="fill: none; stroke: #d8e0e4; stroke-width: 0.5; stroke-linecap: square"/>
     </g>
     <g id="line2d_25"/>
     <g id="text_11">
      <text style="font-size: 8px; font-family: 'Helvetica'; text-anchor: end; fill: #5a6b77" x="26.47125" y="206.223375" transform="rotate(-0 26.47125 206.223375)">0%</text>
     </g>
    </g>
    <g id="ytick_8">
     <g id="line2d_26">
      <path d="M 29.97125 169.875589 
L 509.85125 169.875589 
" clip-path="url(#p1ed30c2bc9)" style="fill: none; stroke: #d8e0e4; stroke-width: 0.5; stroke-linecap: square"/>
     </g>
     <g id="line2d_27"/>
     <g id="text_12">
      <text style="font-size: 8px; font-family: 'Helvetica'; text-anchor: end; fill: #5a6b77" x="26.47125" y="172.914964" transform="rotate(-0 26.47125 172.914964)">50%</text>
     </g>
    </g>
    <g id="ytick_9">
     <g id="line2d_28">
      <path d="M 29.97125 136.567178 
L 509.85125 136.567178 
" clip-path="url(#p1ed30c2bc9)" style="fill: none; stroke: #d8e0e4; stroke-width: 0.5; stroke-linecap: square"/>
     </g>
     <g id="line2d_29"/>
     <g id="text_13">
      <text style="font-size: 8px; font-family: 'Helvetica'; text-anchor: end; fill: #5a6b77" x="26.47125" y="139.606553" transform="rotate(-0 26.47125 139.606553)">100%</text>
     </g>
    </g>
   </g>
   <g id="line2d_30">
    <path d="M 29.97125 136.567178 
L 167.424315 136.567178 
L 167.424315 169.875589 
L 191.538888 169.875589 
L 191.538888 193.191477 
L 261.471149 193.191477 
L 261.471149 169.875589 
L 266.294064 169.875589 
L 266.294064 136.567178 
L 410.981501 136.567178 
L 410.981501 169.875589 
L 418.215873 169.875589 
L 418.215873 193.191477 
L 430.27316 193.191477 
L 430.27316 169.875589 
L 439.918989 169.875589 
L 439.918989 136.567178 
L 497.793964 136.567178 
L 497.793964 169.875589 
L 509.85125 169.875589 
L 509.85125 193.191477 
L 509.85125 193.191477 
" clip-path="url(#p1ed30c2bc9)" style="fill: none; stroke: #2663a7; stroke-width: 1.3; stroke-linecap: square"/>
   </g>
  </g>
 </g>
 <defs>
  <clipPath id="p2fd8f60bb0">
   <rect x="29.97125" y="3.6" width="479.88" height="111.916262"/>
  </clipPath>
  <clipPath id="p1ed30c2bc9">
   <rect x="29.97125" y="128.573159" width="479.88" height="74.610841"/>
  </clipPath>
 </defs>
</svg>
